{
	"asset":{
		"generator":"Khronos glTF Blender I/O v4.2.57",
		"version":"2.0"
	},
	"extensionsUsed":[
		"KHR_materials_specular"
	],
	"scene":0,
	"scenes":[
		{
			"name":"Scene",
			"nodes":[
				3
			]
		}
	],
	"nodes":[
		{
			"mesh":0,
			"name":"Flaunt Receiver",
			"rotation":[
				-0.7071068286895752,
				0,
				0,
				0.7071068286895752
			],
			"scale":[
				10,
				10,
				10
			],
			"translation":[
				0,
				3.3163769330712967e-06,
				-43.926734924316406
			]
		},
		{
			"children":[
				0
			],
			"name":"Flaunt Receiver (1)"
		},
		{
			"children":[
				1
			],
			"name":"Flaunt Receiver (1):1"
		},
		{
			"children":[
				2
			],
			"name":"FLAUNTBRUSH 4.0 STANDARD GEN 8 v4",
			"rotation":[
				0.7071068286895752,
				0,
				0,
				0.7071068286895752
			],
			"scale":[
				0.0010000000474974513,
				0.0010000000474974513,
				0.0010000000474974513
			]
		}
	],
	"materials":[
		{
			"doubleSided":true,
			"extensions":{
				"KHR_materials_specular":{
					"specularColorFactor":[
						2.0,
						2.0,
						2.0
					]
				}
			},
			"name":"Powder Coat (Black)",
			"pbrMetallicRoughness":{
				"baseColorFactor":[
					0.09803921729326248,
					0.09803921729326248,
					0.09803921729326248,
					1
				],
				"roughnessFactor":0.5527864098548889
			}
		}
	],
	"meshes":[
		{
			"name":"Flaunt Receiver",
			"primitives":[
				{
					"attributes":{
						"POSITION":0,
						"NORMAL":1,
						"TEXCOORD_0":2
					},
					"indices":3,
					"material":0
				}
			]
		}
	],
	"accessors":[
		{
			"bufferView":0,
			"componentType":5126,
			"count":6734,
			"max":[
				0.8514000177383423,
				-1.7416623698807143e-15,
				0.8514000177383423
			],
			"min":[
				-0.8514000177383423,
				-5.96999979019165,
				-0.8514000177383423
			],
			"type":"VEC3"
		},
		{
			"bufferView":1,
			"componentType":5126,
			"count":6734,
			"type":"VEC3"
		},
		{
			"bufferView":2,
			"componentType":5126,
			"count":6734,
			"type":"VEC2"
		},
		{
			"bufferView":3,
			"componentType":5123,
			"count":24126,
			"type":"SCALAR"
		}
	],
	"bufferViews":[
		{
			"buffer":0,
			"byteLength":80808,
			"byteOffset":0,
			"target":34962
		},
		{
			"buffer":0,
			"byteLength":80808,
			"byteOffset":80808,
			"target":34962
		},
		{
			"buffer":0,
			"byteLength":53872,
			"byteOffset":161616,
			"target":34962
		},
		{
			"buffer":0,
			"byteLength":48252,
			"byteOffset":215488,
			"target":34963
		}
	],
	"buffers":[
		{
			"byteLength":263740,
			"uri":"FB_4.0_Standard.bin"
		}
	]
}
