{
	"asset":{
		"generator":"Khronos glTF Blender I/O v4.2.57",
		"version":"2.0"
	},
	"extensionsUsed":[
		"KHR_materials_specular",
		"KHR_materials_ior"
	],
	"scene":0,
	"scenes":[
		{
			"name":"Scene",
			"nodes":[
				0,
				1,
				2,
				3
			]
		}
	],
	"nodes":[
		{
			"mesh":0,
			"name":"FLAUNTBRUSH 4.0 BLENDING EYE_EYESHADOW standard"
		},
		{
			"mesh":1,
			"name":"Cylinder.001_Cylinder.003",
			"rotation":[
				0.7071068286895752,
				0,
				0,
				0.7071068286895752
			],
			"scale":[
				105.61460876464844,
				105.61460876464844,
				94.75357818603516
			],
			"translation":[
				0,
				0.8945654630661011,
				0
			]
		},
		{
			"mesh":2,
			"name":"Cube.003",
			"rotation":[
				-0.5000001192092896,
				0.5,
				-0.4999999701976776,
				0.5000001192092896
			],
			"scale":[
				1.6018191576004028,
				5.359323024749756,
				1.4374316930770874
			],
			"translation":[
				0.00017041247338056564,
				2.0025124549865723,
				0.0004119165241718292
			]
		},
		{
			"mesh":3,
			"name":"Mesh",
			"scale":[
				1.0912706851959229,
				1,
				1
			]
		}
	],
	"materials":[
		{
			"doubleSided":true,
			"extensions":{
				"KHR_materials_specular":{
					"specularFactor":0
				}
			},
			"name":"EPX_150_-_Air_Baked_(with_Carbon_M2_M3_L1_3D_Printers)",
			"pbrMetallicRoughness":{
				"baseColorFactor":[
					0.019999999552965164,
					0.019999999552965164,
					0.019999999552965164,
					1
				],
				"metallicFactor":0
			}
		},
		{
			"doubleSided":true,
			"name":"brass_pure",
			"pbrMetallicRoughness":{
				"baseColorFactor":[
					0.8007188439369202,
					0.5399551391601562,
					0.14214257895946503,
					1
				],
				"roughnessFactor":0.029999999329447746
			}
		},
		{
			"doubleSided":true,
			"name":"Material.005",
			"pbrMetallicRoughness":{
				"baseColorFactor":[
					0.01402911264449358,
					0.008867037482559681,
					0.003986809402704239,
					1
				],
				"metallicFactor":0,
				"roughnessFactor":0.5
			}
		},
		{
			"doubleSided":true,
			"extensions":{
				"KHR_materials_specular":{
					"specularFactor":0.6485840082168579
				},
				"KHR_materials_ior":{
					"ior":1.4500000476837158
				}
			},
			"name":"HAIR",
			"pbrMetallicRoughness":{
				"baseColorFactor":[
					0.26224932074546814,
					0.04518624767661095,
					0.01370210014283657,
					1
				],
				"metallicFactor":0,
				"roughnessFactor":0.7899153232574463
			}
		}
	],
	"meshes":[
		{
			"name":"FLAUNTBRUSH 4.0 BLENDING EYE_EYESHADOW standard",
			"primitives":[
				{
					"attributes":{
						"POSITION":0,
						"NORMAL":1,
						"TEXCOORD_0":2
					},
					"indices":3,
					"material":0
				}
			]
		},
		{
			"name":"Cylinder.001_Cylinder.003",
			"primitives":[
				{
					"attributes":{
						"POSITION":4,
						"NORMAL":5,
						"TEXCOORD_0":6
					},
					"indices":7,
					"material":1
				}
			]
		},
		{
			"name":"Cube.005",
			"primitives":[
				{
					"attributes":{
						"POSITION":8,
						"NORMAL":9,
						"TEXCOORD_0":10
					},
					"indices":11,
					"material":2
				}
			]
		},
		{
			"name":"Mesh",
			"primitives":[
				{
					"attributes":{
						"POSITION":12,
						"NORMAL":13,
						"TEXCOORD_0":14
					},
					"indices":15,
					"material":3
				}
			]
		}
	],
	"accessors":[
		{
			"bufferView":0,
			"componentType":5126,
			"count":24096,
			"max":[
				0.2755909860134125,
				0.5846459865570068,
				0.2755909860134125
			],
			"min":[
				-0.2755909860134125,
				-0.22834600508213043,
				-0.2755909860134125
			],
			"type":"VEC3"
		},
		{
			"bufferView":1,
			"componentType":5126,
			"count":24096,
			"type":"VEC3"
		},
		{
			"bufferView":2,
			"componentType":5126,
			"count":24096,
			"type":"VEC2"
		},
		{
			"bufferView":3,
			"componentType":5123,
			"count":70260,
			"type":"SCALAR"
		},
		{
			"bufferView":4,
			"componentType":5126,
			"count":258,
			"max":[
				0.0014730000402778387,
				0.0014730000402778387,
				0.006775999907404184
			],
			"min":[
				-0.0014730000402778387,
				-0.0014730000402778387,
				-0.0118429996073246
			],
			"type":"VEC3"
		},
		{
			"bufferView":5,
			"componentType":5126,
			"count":258,
			"type":"VEC3"
		},
		{
			"bufferView":6,
			"componentType":5126,
			"count":258,
			"type":"VEC2"
		},
		{
			"bufferView":7,
			"componentType":5123,
			"count":756,
			"type":"SCALAR"
		},
		{
			"bufferView":8,
			"componentType":5126,
			"count":21,
			"max":[
				1.169561372194039e-07,
				0.011322828009724617,
				0.08265422284603119
			],
			"min":[
				-1.7093589121941477e-07,
				-0.011322836391627789,
				-0.08265422284603119
			],
			"type":"VEC3"
		},
		{
			"bufferView":9,
			"componentType":5126,
			"count":21,
			"type":"VEC3"
		},
		{
			"bufferView":10,
			"componentType":5126,
			"count":21,
			"type":"VEC2"
		},
		{
			"bufferView":11,
			"componentType":5123,
			"count":72,
			"type":"SCALAR"
		},
		{
			"bufferView":12,
			"componentType":5126,
			"count":704740,
			"max":[
				0.11900298297405243,
				2.3283920288085938,
				0.061063677072525024
			],
			"min":[
				-0.11880416423082352,
				2.002164125442505,
				-0.06046510115265846
			],
			"type":"VEC3"
		},
		{
			"bufferView":13,
			"componentType":5126,
			"count":704740,
			"type":"VEC3"
		},
		{
			"bufferView":14,
			"componentType":5126,
			"count":704740,
			"type":"VEC2"
		},
		{
			"bufferView":15,
			"componentType":5125,
			"count":1057320,
			"type":"SCALAR"
		}
	],
	"bufferViews":[
		{
			"buffer":0,
			"byteLength":289152,
			"byteOffset":0,
			"target":34962
		},
		{
			"buffer":0,
			"byteLength":289152,
			"byteOffset":289152,
			"target":34962
		},
		{
			"buffer":0,
			"byteLength":192768,
			"byteOffset":578304,
			"target":34962
		},
		{
			"buffer":0,
			"byteLength":140520,
			"byteOffset":771072,
			"target":34963
		},
		{
			"buffer":0,
			"byteLength":3096,
			"byteOffset":911592,
			"target":34962
		},
		{
			"buffer":0,
			"byteLength":3096,
			"byteOffset":914688,
			"target":34962
		},
		{
			"buffer":0,
			"byteLength":2064,
			"byteOffset":917784,
			"target":34962
		},
		{
			"buffer":0,
			"byteLength":1512,
			"byteOffset":919848,
			"target":34963
		},
		{
			"buffer":0,
			"byteLength":252,
			"byteOffset":921360,
			"target":34962
		},
		{
			"buffer":0,
			"byteLength":252,
			"byteOffset":921612,
			"target":34962
		},
		{
			"buffer":0,
			"byteLength":168,
			"byteOffset":921864,
			"target":34962
		},
		{
			"buffer":0,
			"byteLength":144,
			"byteOffset":922032,
			"target":34963
		},
		{
			"buffer":0,
			"byteLength":8456880,
			"byteOffset":922176,
			"target":34962
		},
		{
			"buffer":0,
			"byteLength":8456880,
			"byteOffset":9379056,
			"target":34962
		},
		{
			"buffer":0,
			"byteLength":5637920,
			"byteOffset":17835936,
			"target":34962
		},
		{
			"buffer":0,
			"byteLength":4229280,
			"byteOffset":23473856,
			"target":34963
		}
	],
	"buffers":[
		{
			"byteLength":27703136,
			"uri":"FD_Blending-Eye_Eyeshadow.bin"
		}
	]
}
