{
	"asset":{
		"generator":"Khronos glTF Blender I/O v4.2.57",
		"version":"2.0"
	},
	"extensionsUsed":[
		"KHR_materials_specular"
	],
	"scene":0,
	"scenes":[
		{
			"name":"Scene",
			"nodes":[
				0,
				1,
				2,
				5,
				6,
				7,
				8
			]
		}
	],
	"nodes":[
		{
			"mesh":0,
			"name":"FLAUNTBRUSH 4.0 BROWCOMB_&_BRUSH standard"
		},
		{
			"mesh":1,
			"name":"Cylinder.001_Cylinder.003",
			"rotation":[
				0.7071068286895752,
				0,
				0,
				0.7071068286895752
			],
			"scale":[
				86.75066375732422,
				86.75066375732422,
				66.25032806396484
			],
			"translation":[
				0,
				0.6730219125747681,
				0
			]
		},
		{
			"name":"Empty",
			"rotation":[
				-0.009907111525535583,
				0.7070373296737671,
				-0.7070374488830566,
				0.009906883351504803
			],
			"scale":[
				0.6790043711662292,
				0.679004430770874,
				0.6790043711662292
			],
			"translation":[
				-0.11183322966098785,
				2.230574607849121,
				0
			]
		},
		{
			"mesh":2,
			"name":"Cube",
			"rotation":[
				0.0029367306269705296,
				-0.002937301527708769,
				-0.262896329164505,
				0.9648151397705078
			],
			"scale":[
				1.4791600704193115,
				1.4791401624679565,
				0.7041929960250854
			],
			"translation":[
				-0.1640230417251587,
				4.655575752258301,
				-0.0018322549294680357
			]
		},
		{
			"mesh":3,
			"name":"Cube.001",
			"scale":[
				1.2966523170471191,
				0.15638811886310577,
				0.13717295229434967
			],
			"translation":[
				2.3863344192504883,
				6.87899112701416,
				0
			]
		},
		{
			"children":[
				3,
				4
			],
			"mesh":4,
			"name":"Cylinder",
			"scale":[
				0.09799326211214066,
				0.09799324721097946,
				0.09799326211214066
			],
			"translation":[
				0,
				1.49665105342865,
				0
			]
		},
		{
			"name":"NurbsPath",
			"rotation":[
				0,
				0,
				-0.7071068286895752,
				0.7071068286895752
			],
			"scale":[
				0.2124711275100708,
				0.2124711275100708,
				0.2124711275100708
			],
			"translation":[
				0.2234172374010086,
				2.6287851333618164,
				0
			]
		},
		{
			"mesh":5,
			"name":"Cube.002",
			"rotation":[
				0,
				0,
				-0.7885835766792297,
				0.6149276494979858
			],
			"scale":[
				-0.32215946912765503,
				-0.023295685648918152,
				-0.0005409166333265603
			],
			"translation":[
				-0.08719754219055176,
				2.2787563800811768,
				0
			]
		},
		{
			"mesh":6,
			"name":"Mesh",
			"scale":[
				1,
				1,
				0.28899723291397095
			],
			"translation":[
				-0.13997630774974823,
				2.28464412689209,
				9.262638923246413e-05
			]
		}
	],
	"materials":[
		{
			"doubleSided":true,
			"extensions":{
				"KHR_materials_specular":{
					"specularFactor":0
				}
			},
			"name":"EPX_150_-_Air_Baked_(with_Carbon_M2_M3_L1_3D_Printers)",
			"pbrMetallicRoughness":{
				"baseColorFactor":[
					0.019999999552965164,
					0.019999999552965164,
					0.019999999552965164,
					1
				],
				"metallicFactor":0
			}
		},
		{
			"doubleSided":true,
			"name":"brass_pure",
			"pbrMetallicRoughness":{
				"baseColorFactor":[
					0.8007188439369202,
					0.5399551391601562,
					0.14214257895946503,
					1
				],
				"roughnessFactor":0.029999999329447746
			}
		},
		{
			"doubleSided":true,
			"name":"PLASTIC",
			"pbrMetallicRoughness":{
				"baseColorFactor":[
					0.016491394490003586,
					0.016491394490003586,
					0.016491394490003586,
					1
				],
				"metallicFactor":0,
				"roughnessFactor":0.11926605552434921
			}
		},
		{
			"doubleSided":true,
			"name":"Material",
			"pbrMetallicRoughness":{
				"baseColorFactor":[
					0.001547000021673739,
					0.001547000021673739,
					0.001547000021673739,
					1
				],
				"metallicFactor":0,
				"roughnessFactor":0.45951420068740845
			}
		},
		{
			"doubleSided":true,
			"name":"Black Hairs",
			"pbrMetallicRoughness":{
				"baseColorFactor":[
					0.056000079959630966,
					0.056000079959630966,
					0.056000079959630966,
					1
				],
				"metallicFactor":0,
				"roughnessFactor":0.5
			}
		}
	],
	"meshes":[
		{
			"name":"FLAUNTBRUSH 4.0 BROWCOMB_&_BRUSH standard",
			"primitives":[
				{
					"attributes":{
						"POSITION":0,
						"NORMAL":1,
						"TEXCOORD_0":2
					},
					"indices":3,
					"material":0
				}
			]
		},
		{
			"name":"Cylinder.001_Cylinder.003",
			"primitives":[
				{
					"attributes":{
						"POSITION":4,
						"NORMAL":5,
						"TEXCOORD_0":6
					},
					"indices":7,
					"material":1
				}
			]
		},
		{
			"name":"Cube",
			"primitives":[
				{
					"attributes":{
						"POSITION":8,
						"NORMAL":9,
						"TEXCOORD_0":10
					},
					"indices":11,
					"material":2
				}
			]
		},
		{
			"name":"Cube.001",
			"primitives":[
				{
					"attributes":{
						"POSITION":12,
						"NORMAL":13,
						"TEXCOORD_0":14
					},
					"indices":15,
					"material":2
				}
			]
		},
		{
			"name":"Cylinder",
			"primitives":[
				{
					"attributes":{
						"POSITION":16,
						"NORMAL":17,
						"TEXCOORD_0":18
					},
					"indices":19,
					"material":3
				}
			]
		},
		{
			"name":"Cube.002",
			"primitives":[
				{
					"attributes":{
						"POSITION":20,
						"NORMAL":21,
						"TEXCOORD_0":22
					},
					"indices":23
				}
			]
		},
		{
			"name":"Mesh",
			"primitives":[
				{
					"attributes":{
						"POSITION":24,
						"NORMAL":25,
						"TEXCOORD_0":26
					},
					"indices":27,
					"material":4
				}
			]
		}
	],
	"accessors":[
		{
			"bufferView":0,
			"componentType":5126,
			"count":58313,
			"max":[
				0.2708140015602112,
				0.5846459865570068,
				0.2708140015602112
			],
			"min":[
				-0.2708140015602112,
				-0.22834600508213043,
				-0.2708140015602112
			],
			"type":"VEC3"
		},
		{
			"bufferView":1,
			"componentType":5126,
			"count":58313,
			"type":"VEC3"
		},
		{
			"bufferView":2,
			"componentType":5126,
			"count":58313,
			"type":"VEC2"
		},
		{
			"bufferView":3,
			"componentType":5123,
			"count":192204,
			"type":"SCALAR"
		},
		{
			"bufferView":4,
			"componentType":5126,
			"count":258,
			"max":[
				0.0014730000402778387,
				0.0014730000402778387,
				0.006775999907404184
			],
			"min":[
				-0.0014730000402778387,
				-0.0014730000402778387,
				-0.0118429996073246
			],
			"type":"VEC3"
		},
		{
			"bufferView":5,
			"componentType":5126,
			"count":258,
			"type":"VEC3"
		},
		{
			"bufferView":6,
			"componentType":5126,
			"count":258,
			"type":"VEC2"
		},
		{
			"bufferView":7,
			"componentType":5123,
			"count":756,
			"type":"SCALAR"
		},
		{
			"bufferView":8,
			"componentType":5126,
			"count":778198,
			"max":[
				2.8095669746398926,
				5.331291675567627,
				1.3272441625595093
			],
			"min":[
				-2.731095790863037,
				-1.9559026956558228,
				-1.3272441625595093
			],
			"type":"VEC3"
		},
		{
			"bufferView":9,
			"componentType":5126,
			"count":778198,
			"type":"VEC3"
		},
		{
			"bufferView":10,
			"componentType":5126,
			"count":778198,
			"type":"VEC2"
		},
		{
			"bufferView":11,
			"componentType":5125,
			"count":1225728,
			"type":"SCALAR"
		},
		{
			"bufferView":12,
			"componentType":5126,
			"count":1728,
			"max":[
				1.6558197736740112,
				28.800872802734375,
				1.000001072883606
			],
			"min":[
				-1.4382778406143188,
				-20.250110626220703,
				-1.0000007152557373
			],
			"type":"VEC3"
		},
		{
			"bufferView":13,
			"componentType":5126,
			"count":1728,
			"type":"VEC3"
		},
		{
			"bufferView":14,
			"componentType":5126,
			"count":1728,
			"type":"VEC2"
		},
		{
			"bufferView":15,
			"componentType":5123,
			"count":2592,
			"type":"SCALAR"
		},
		{
			"bufferView":16,
			"componentType":5126,
			"count":61410,
			"max":[
				0.9856982231140137,
				4.367360591888428,
				0.9813017845153809
			],
			"min":[
				-0.9857887625694275,
				-0.9998360276222229,
				-0.9813018441200256
			],
			"type":"VEC3"
		},
		{
			"bufferView":17,
			"componentType":5126,
			"count":61410,
			"type":"VEC3"
		},
		{
			"bufferView":18,
			"componentType":5126,
			"count":61410,
			"type":"VEC2"
		},
		{
			"bufferView":19,
			"componentType":5123,
			"count":92160,
			"type":"SCALAR"
		},
		{
			"bufferView":20,
			"componentType":5126,
			"count":24,
			"max":[
				1,
				1,
				1
			],
			"min":[
				-1,
				-1,
				-1
			],
			"type":"VEC3"
		},
		{
			"bufferView":21,
			"componentType":5126,
			"count":24,
			"type":"VEC3"
		},
		{
			"bufferView":22,
			"componentType":5126,
			"count":24,
			"type":"VEC2"
		},
		{
			"bufferView":23,
			"componentType":5123,
			"count":36,
			"type":"SCALAR"
		},
		{
			"bufferView":24,
			"componentType":5126,
			"count":13720,
			"max":[
				0.1844288408756256,
				0.3847198188304901,
				0.0474967323243618
			],
			"min":[
				-0.27037885785102844,
				-0.37846753001213074,
				-0.048951033502817154
			],
			"type":"VEC3"
		},
		{
			"bufferView":25,
			"componentType":5126,
			"count":13720,
			"type":"VEC3"
		},
		{
			"bufferView":26,
			"componentType":5126,
			"count":13720,
			"type":"VEC2"
		},
		{
			"bufferView":27,
			"componentType":5123,
			"count":20580,
			"type":"SCALAR"
		}
	],
	"bufferViews":[
		{
			"buffer":0,
			"byteLength":699756,
			"byteOffset":0,
			"target":34962
		},
		{
			"buffer":0,
			"byteLength":699756,
			"byteOffset":699756,
			"target":34962
		},
		{
			"buffer":0,
			"byteLength":466504,
			"byteOffset":1399512,
			"target":34962
		},
		{
			"buffer":0,
			"byteLength":384408,
			"byteOffset":1866016,
			"target":34963
		},
		{
			"buffer":0,
			"byteLength":3096,
			"byteOffset":2250424,
			"target":34962
		},
		{
			"buffer":0,
			"byteLength":3096,
			"byteOffset":2253520,
			"target":34962
		},
		{
			"buffer":0,
			"byteLength":2064,
			"byteOffset":2256616,
			"target":34962
		},
		{
			"buffer":0,
			"byteLength":1512,
			"byteOffset":2258680,
			"target":34963
		},
		{
			"buffer":0,
			"byteLength":9338376,
			"byteOffset":2260192,
			"target":34962
		},
		{
			"buffer":0,
			"byteLength":9338376,
			"byteOffset":11598568,
			"target":34962
		},
		{
			"buffer":0,
			"byteLength":6225584,
			"byteOffset":20936944,
			"target":34962
		},
		{
			"buffer":0,
			"byteLength":4902912,
			"byteOffset":27162528,
			"target":34963
		},
		{
			"buffer":0,
			"byteLength":20736,
			"byteOffset":32065440,
			"target":34962
		},
		{
			"buffer":0,
			"byteLength":20736,
			"byteOffset":32086176,
			"target":34962
		},
		{
			"buffer":0,
			"byteLength":13824,
			"byteOffset":32106912,
			"target":34962
		},
		{
			"buffer":0,
			"byteLength":5184,
			"byteOffset":32120736,
			"target":34963
		},
		{
			"buffer":0,
			"byteLength":736920,
			"byteOffset":32125920,
			"target":34962
		},
		{
			"buffer":0,
			"byteLength":736920,
			"byteOffset":32862840,
			"target":34962
		},
		{
			"buffer":0,
			"byteLength":491280,
			"byteOffset":33599760,
			"target":34962
		},
		{
			"buffer":0,
			"byteLength":184320,
			"byteOffset":34091040,
			"target":34963
		},
		{
			"buffer":0,
			"byteLength":288,
			"byteOffset":34275360,
			"target":34962
		},
		{
			"buffer":0,
			"byteLength":288,
			"byteOffset":34275648,
			"target":34962
		},
		{
			"buffer":0,
			"byteLength":192,
			"byteOffset":34275936,
			"target":34962
		},
		{
			"buffer":0,
			"byteLength":72,
			"byteOffset":34276128,
			"target":34963
		},
		{
			"buffer":0,
			"byteLength":164640,
			"byteOffset":34276200,
			"target":34962
		},
		{
			"buffer":0,
			"byteLength":164640,
			"byteOffset":34440840,
			"target":34962
		},
		{
			"buffer":0,
			"byteLength":109760,
			"byteOffset":34605480,
			"target":34962
		},
		{
			"buffer":0,
			"byteLength":41160,
			"byteOffset":34715240,
			"target":34963
		}
	],
	"buffers":[
		{
			"byteLength":34756400,
			"uri":"FD_Browcomb.bin"
		}
	]
}
