{
	"asset":{
		"generator":"Khronos glTF Blender I/O v4.2.57",
		"version":"2.0"
	},
	"extensionsUsed":[
		"KHR_materials_clearcoat",
		"KHR_materials_specular",
		"KHR_materials_ior"
	],
	"scene":0,
	"scenes":[
		{
			"name":"Scene",
			"nodes":[
				0,
				1,
				2,
				3
			]
		}
	],
	"nodes":[
		{
			"mesh":0,
			"name":"FLAUNTBRUSH 4.0 EYE_SMUDGE_EYELASH standard"
		},
		{
			"mesh":1,
			"name":"Cylinder.001_Cylinder.003",
			"rotation":[
				0.7071068286895752,
				0,
				0,
				0.7071068286895752
			],
			"scale":[
				98.23783874511719,
				98.23783874511719,
				63.65779113769531
			],
			"translation":[
				0,
				0.6613551378250122,
				0
			]
		},
		{
			"mesh":2,
			"name":"Mesh_Mesh.003",
			"rotation":[
				0.7071068286895752,
				0,
				0,
				0.7071068286895752
			],
			"scale":[
				22.124738693237305,
				22.124738693237305,
				22.124738693237305
			],
			"translation":[
				0,
				0.938200056552887,
				0
			]
		},
		{
			"mesh":3,
			"name":"Sphere",
			"scale":[
				0.07574957609176636,
				0.12521770596504211,
				0.12217392772436142
			],
			"translation":[
				0,
				1.4132599830627441,
				0
			]
		}
	],
	"materials":[
		{
			"doubleSided":true,
			"extensions":{
				"KHR_materials_specular":{
					"specularFactor":0
				}
			},
			"name":"EPX_150_-_Air_Baked_(with_Carbon_M2_M3_L1_3D_Printers)",
			"pbrMetallicRoughness":{
				"baseColorFactor":[
					0.019999999552965164,
					0.019999999552965164,
					0.019999999552965164,
					1
				],
				"metallicFactor":0
			}
		},
		{
			"doubleSided":true,
			"name":"brass_pure",
			"pbrMetallicRoughness":{
				"baseColorFactor":[
					0.8007188439369202,
					0.5399551391601562,
					0.14214257895946503,
					1
				],
				"roughnessFactor":0.029999999329447746
			}
		},
		{
			"doubleSided":true,
			"extensions":{
				"KHR_materials_specular":{
					"specularFactor":0.6485840082168579
				},
				"KHR_materials_ior":{
					"ior":1.4500000476837158
				}
			},
			"name":"HAIR",
			"pbrMetallicRoughness":{
				"metallicFactor":0,
				"roughnessFactor":0.7899153232574463
			}
		},
		{
			"doubleSided":true,
			"extensions":{
				"KHR_materials_clearcoat":{
					"clearcoatRoughnessFactor":0.5254129767417908
				},
				"KHR_materials_specular":{
					"specularFactor":0
				}
			},
			"name":"eye smudger",
			"pbrMetallicRoughness":{
				"baseColorFactor":[
					0.019999999552965164,
					0.019999999552965164,
					0.019999999552965164,
					1
				],
				"metallicFactor":0
			}
		}
	],
	"meshes":[
		{
			"name":"FLAUNTBRUSH 4.0 EYE_SMUDGE_EYELASH standard",
			"primitives":[
				{
					"attributes":{
						"POSITION":0,
						"NORMAL":1,
						"TEXCOORD_0":2
					},
					"indices":3,
					"material":0
				}
			]
		},
		{
			"name":"Cylinder.001_Cylinder.003",
			"primitives":[
				{
					"attributes":{
						"POSITION":4,
						"NORMAL":5,
						"TEXCOORD_0":6
					},
					"indices":7,
					"material":1
				}
			]
		},
		{
			"name":"Mesh_Mesh.003",
			"primitives":[
				{
					"attributes":{
						"POSITION":8,
						"NORMAL":9,
						"TEXCOORD_0":10
					},
					"indices":11,
					"material":2
				}
			]
		},
		{
			"name":"Sphere",
			"primitives":[
				{
					"attributes":{
						"POSITION":12,
						"NORMAL":13,
						"TEXCOORD_0":14
					},
					"indices":15,
					"material":3
				}
			]
		}
	],
	"accessors":[
		{
			"bufferView":0,
			"componentType":5126,
			"count":27092,
			"max":[
				0.2756569981575012,
				0.5846459865570068,
				0.2756569981575012
			],
			"min":[
				-0.2756569981575012,
				-0.22834600508213043,
				-0.2756569981575012
			],
			"type":"VEC3"
		},
		{
			"bufferView":1,
			"componentType":5126,
			"count":27092,
			"type":"VEC3"
		},
		{
			"bufferView":2,
			"componentType":5126,
			"count":27092,
			"type":"VEC2"
		},
		{
			"bufferView":3,
			"componentType":5123,
			"count":88074,
			"type":"SCALAR"
		},
		{
			"bufferView":4,
			"componentType":5126,
			"count":258,
			"max":[
				0.0014730000402778387,
				0.0014730000402778387,
				0.006775999907404184
			],
			"min":[
				-0.0014730000402778387,
				-0.0014730000402778387,
				-0.0118429996073246
			],
			"type":"VEC3"
		},
		{
			"bufferView":5,
			"componentType":5126,
			"count":258,
			"type":"VEC3"
		},
		{
			"bufferView":6,
			"componentType":5126,
			"count":258,
			"type":"VEC2"
		},
		{
			"bufferView":7,
			"componentType":5123,
			"count":756,
			"type":"SCALAR"
		},
		{
			"bufferView":8,
			"componentType":5126,
			"count":1919992,
			"max":[
				0.001003999961540103,
				0.0009139999747276306,
				-0.01181699987500906
			],
			"min":[
				-0.0011470000026747584,
				-0.0009289999725297093,
				-0.020114000886678696
			],
			"type":"VEC3"
		},
		{
			"bufferView":9,
			"componentType":5126,
			"count":1919992,
			"type":"VEC3"
		},
		{
			"bufferView":10,
			"componentType":5126,
			"count":1919992,
			"type":"VEC2"
		},
		{
			"bufferView":11,
			"componentType":5125,
			"count":2880000,
			"type":"SCALAR"
		},
		{
			"bufferView":12,
			"componentType":5126,
			"count":1984,
			"max":[
				0.9999997019767761,
				1.5416944026947021,
				0.9999993443489075
			],
			"min":[
				-0.9999990463256836,
				-1,
				-1
			],
			"type":"VEC3"
		},
		{
			"bufferView":13,
			"componentType":5126,
			"count":1984,
			"type":"VEC3"
		},
		{
			"bufferView":14,
			"componentType":5126,
			"count":1984,
			"type":"VEC2"
		},
		{
			"bufferView":15,
			"componentType":5123,
			"count":2880,
			"type":"SCALAR"
		}
	],
	"bufferViews":[
		{
			"buffer":0,
			"byteLength":325104,
			"byteOffset":0,
			"target":34962
		},
		{
			"buffer":0,
			"byteLength":325104,
			"byteOffset":325104,
			"target":34962
		},
		{
			"buffer":0,
			"byteLength":216736,
			"byteOffset":650208,
			"target":34962
		},
		{
			"buffer":0,
			"byteLength":176148,
			"byteOffset":866944,
			"target":34963
		},
		{
			"buffer":0,
			"byteLength":3096,
			"byteOffset":1043092,
			"target":34962
		},
		{
			"buffer":0,
			"byteLength":3096,
			"byteOffset":1046188,
			"target":34962
		},
		{
			"buffer":0,
			"byteLength":2064,
			"byteOffset":1049284,
			"target":34962
		},
		{
			"buffer":0,
			"byteLength":1512,
			"byteOffset":1051348,
			"target":34963
		},
		{
			"buffer":0,
			"byteLength":23039904,
			"byteOffset":1052860,
			"target":34962
		},
		{
			"buffer":0,
			"byteLength":23039904,
			"byteOffset":24092764,
			"target":34962
		},
		{
			"buffer":0,
			"byteLength":15359936,
			"byteOffset":47132668,
			"target":34962
		},
		{
			"buffer":0,
			"byteLength":11520000,
			"byteOffset":62492604,
			"target":34963
		},
		{
			"buffer":0,
			"byteLength":23808,
			"byteOffset":74012604,
			"target":34962
		},
		{
			"buffer":0,
			"byteLength":23808,
			"byteOffset":74036412,
			"target":34962
		},
		{
			"buffer":0,
			"byteLength":15872,
			"byteOffset":74060220,
			"target":34962
		},
		{
			"buffer":0,
			"byteLength":5760,
			"byteOffset":74076092,
			"target":34963
		}
	],
	"buffers":[
		{
			"byteLength":74081852,
			"uri":"FD_Eye-Smudge.bin"
		}
	]
}
