{
	"asset":{
		"generator":"Khronos glTF Blender I/O v4.2.57",
		"version":"2.0"
	},
	"extensionsUsed":[
		"KHR_materials_specular"
	],
	"scene":0,
	"scenes":[
		{
			"name":"Scene",
			"nodes":[
				0,
				1,
				2,
				3
			]
		}
	],
	"nodes":[
		{
			"mesh":0,
			"name":"FLAUNTBRUSH 4.0 FACE standard"
		},
		{
			"mesh":1,
			"name":"brass-tube",
			"scale":[
				0.3369876742362976,
				0.2598012089729309,
				0.3369876742362976
			],
			"translation":[
				0,
				0.4672728180885315,
				0
			]
		},
		{
			"mesh":2,
			"name":"Icosphere",
			"scale":[
				0.29834768176078796,
				0.31506675481796265,
				0.3481244146823883
			],
			"translation":[
				-0.012764540500938892,
				1.5522514581680298,
				0.005450369790196419
			]
		},
		{
			"mesh":3,
			"name":"Mesh"
		}
	],
	"materials":[
		{
			"doubleSided":true,
			"extensions":{
				"KHR_materials_specular":{
					"specularFactor":0
				}
			},
			"name":"EPX_150_-_Air_Baked_(with_Carbon_M2_M3_L1_3D_Printers)",
			"pbrMetallicRoughness":{
				"baseColorFactor":[
					0.019999999552965164,
					0.019999999552965164,
					0.019999999552965164,
					1
				],
				"metallicFactor":0
			}
		},
		{
			"doubleSided":true,
			"name":"Brass",
			"pbrMetallicRoughness":{
				"baseColorFactor":[
					0.8007188439369202,
					0.5399551391601562,
					0.14214257895946503,
					1
				],
				"roughnessFactor":0.029999999329447746
			}
		},
		{
			"doubleSided":true,
			"name":"Material",
			"normalTexture":{
				"index":0
			},
			"pbrMetallicRoughness":{
				"baseColorFactor":[
					0.26221904158592224,
					0.0453527569770813,
					0.013933705165982246,
					1
				],
				"metallicFactor":0
			}
		}
	],
	"meshes":[
		{
			"name":"FLAUNTBRUSH 4.0 FACE standard",
			"primitives":[
				{
					"attributes":{
						"POSITION":0,
						"NORMAL":1,
						"TEXCOORD_0":2
					},
					"indices":3,
					"material":0
				}
			]
		},
		{
			"name":"Cylinder",
			"primitives":[
				{
					"attributes":{
						"POSITION":4,
						"NORMAL":5,
						"TEXCOORD_0":6
					},
					"indices":7,
					"material":1
				}
			]
		},
		{
			"name":"Icosphere",
			"primitives":[
				{
					"attributes":{
						"POSITION":8,
						"NORMAL":9,
						"TEXCOORD_0":10
					},
					"indices":11,
					"material":2
				}
			]
		},
		{
			"name":"Mesh",
			"primitives":[
				{
					"attributes":{
						"POSITION":12,
						"NORMAL":13,
						"TEXCOORD_0":14
					},
					"indices":15,
					"material":2
				}
			]
		}
	],
	"textures":[
		{
			"sampler":0,
			"source":0
		}
	],
	"images":[
		{
			"mimeType":"image/png",
			"name":"Hair-texture",
			"uri":"Hair-texture.png"
		}
	],
	"accessors":[
		{
			"bufferView":0,
			"componentType":5126,
			"count":37427,
			"max":[
				0.3937009871006012,
				0.5270090103149414,
				0.3937009871006012
			],
			"min":[
				-0.3937009871006012,
				-0.22834600508213043,
				-0.3937009871006012
			],
			"type":"VEC3"
		},
		{
			"bufferView":1,
			"componentType":5126,
			"count":37427,
			"type":"VEC3"
		},
		{
			"bufferView":2,
			"componentType":5126,
			"count":37427,
			"type":"VEC2"
		},
		{
			"bufferView":3,
			"componentType":5123,
			"count":114060,
			"type":"SCALAR"
		},
		{
			"bufferView":4,
			"componentType":5126,
			"count":972483,
			"max":[
				0.9879764318466187,
				4.393996238708496,
				1.284336805343628
			],
			"min":[
				-0.9879764318466187,
				-0.9996988773345947,
				-1.284336805343628
			],
			"type":"VEC3"
		},
		{
			"bufferView":5,
			"componentType":5126,
			"count":972483,
			"type":"VEC3"
		},
		{
			"bufferView":6,
			"componentType":5126,
			"count":972483,
			"type":"VEC2"
		},
		{
			"bufferView":7,
			"componentType":5125,
			"count":1483776,
			"type":"SCALAR"
		},
		{
			"bufferView":8,
			"componentType":5126,
			"count":61440,
			"max":[
				0.924250066280365,
				0.9303051233291626,
				0.9248635768890381
			],
			"min":[
				-0.924250066280365,
				-0.9303051233291626,
				-0.9248635768890381
			],
			"type":"VEC3"
		},
		{
			"bufferView":9,
			"componentType":5126,
			"count":61440,
			"type":"VEC3"
		},
		{
			"bufferView":10,
			"componentType":5126,
			"count":61440,
			"type":"VEC2"
		},
		{
			"bufferView":11,
			"componentType":5123,
			"count":92160,
			"type":"SCALAR"
		},
		{
			"bufferView":12,
			"componentType":5126,
			"count":1024874,
			"max":[
				0.3841032385826111,
				2.5712637901306152,
				0.5505161881446838
			],
			"min":[
				-0.42169293761253357,
				1.2276946306228638,
				-0.5450125932693481
			],
			"type":"VEC3"
		},
		{
			"bufferView":13,
			"componentType":5126,
			"count":1024874,
			"type":"VEC3"
		},
		{
			"bufferView":14,
			"componentType":5126,
			"count":1024874,
			"type":"VEC2"
		},
		{
			"bufferView":15,
			"componentType":5125,
			"count":1537632,
			"type":"SCALAR"
		}
	],
	"bufferViews":[
		{
			"buffer":0,
			"byteLength":449124,
			"byteOffset":0,
			"target":34962
		},
		{
			"buffer":0,
			"byteLength":449124,
			"byteOffset":449124,
			"target":34962
		},
		{
			"buffer":0,
			"byteLength":299416,
			"byteOffset":898248,
			"target":34962
		},
		{
			"buffer":0,
			"byteLength":228120,
			"byteOffset":1197664,
			"target":34963
		},
		{
			"buffer":0,
			"byteLength":11669796,
			"byteOffset":1425784,
			"target":34962
		},
		{
			"buffer":0,
			"byteLength":11669796,
			"byteOffset":13095580,
			"target":34962
		},
		{
			"buffer":0,
			"byteLength":7779864,
			"byteOffset":24765376,
			"target":34962
		},
		{
			"buffer":0,
			"byteLength":5935104,
			"byteOffset":32545240,
			"target":34963
		},
		{
			"buffer":0,
			"byteLength":737280,
			"byteOffset":38480344,
			"target":34962
		},
		{
			"buffer":0,
			"byteLength":737280,
			"byteOffset":39217624,
			"target":34962
		},
		{
			"buffer":0,
			"byteLength":491520,
			"byteOffset":39954904,
			"target":34962
		},
		{
			"buffer":0,
			"byteLength":184320,
			"byteOffset":40446424,
			"target":34963
		},
		{
			"buffer":0,
			"byteLength":12298488,
			"byteOffset":40630744,
			"target":34962
		},
		{
			"buffer":0,
			"byteLength":12298488,
			"byteOffset":52929232,
			"target":34962
		},
		{
			"buffer":0,
			"byteLength":8198992,
			"byteOffset":65227720,
			"target":34962
		},
		{
			"buffer":0,
			"byteLength":6150528,
			"byteOffset":73426712,
			"target":34963
		}
	],
	"samplers":[
		{
			"magFilter":9728,
			"minFilter":9984,
			"wrapS":33071,
			"wrapT":33071
		}
	],
	"buffers":[
		{
			"byteLength":79577240,
			"uri":"FD_FACE.bin"
		}
	]
}
