{
	"asset":{
		"generator":"Khronos glTF Blender I/O v4.2.57",
		"version":"2.0"
	},
	"extensionsUsed":[
		"KHR_materials_specular",
		"KHR_materials_ior"
	],
	"scene":0,
	"scenes":[
		{
			"name":"Scene",
			"nodes":[
				0,
				1,
				2,
				3
			]
		}
	],
	"nodes":[
		{
			"mesh":0,
			"name":"FLAUNTBRUSH 4.0 BRONZER_FOUNDATION standard"
		},
		{
			"mesh":1,
			"name":"BASE_Cylinder.001",
			"rotation":[
				0.7071068286895752,
				0,
				0,
				0.7071068286895752
			],
			"scale":[
				112.27423095703125,
				112.27423095703125,
				63.75352478027344
			],
			"translation":[
				0,
				0.8600984811782837,
				0
			]
		},
		{
			"mesh":2,
			"name":"Icosphere",
			"scale":[
				0.2660040855407715,
				0.11541290581226349,
				0.11240889132022858
			],
			"translation":[
				0,
				1.264811635017395,
				0
			]
		},
		{
			"mesh":3,
			"name":"Mesh",
			"scale":[
				1.0321894884109497,
				1,
				0.9414745569229126
			],
			"translation":[
				-0.009343762882053852,
				0,
				0
			]
		}
	],
	"materials":[
		{
			"doubleSided":true,
			"extensions":{
				"KHR_materials_specular":{
					"specularFactor":0
				}
			},
			"name":"EPX_150_-_Air_Baked_(with_Carbon_M2_M3_L1_3D_Printers)",
			"pbrMetallicRoughness":{
				"baseColorFactor":[
					0.019999999552965164,
					0.019999999552965164,
					0.019999999552965164,
					1
				],
				"metallicFactor":0
			}
		},
		{
			"doubleSided":true,
			"name":"brass_pure",
			"pbrMetallicRoughness":{
				"baseColorFactor":[
					0.8007188439369202,
					0.5399551391601562,
					0.14214257895946503,
					1
				],
				"roughnessFactor":0.029999999329447746
			}
		},
		{
			"doubleSided":true,
			"extensions":{
				"KHR_materials_specular":{
					"specularFactor":0.6485840082168579
				},
				"KHR_materials_ior":{
					"ior":1.4500000476837158
				}
			},
			"name":"HAIR",
			"pbrMetallicRoughness":{
				"baseColorFactor":[
					0.26224932074546814,
					0.04518624767661095,
					0.01370210014283657,
					1
				],
				"metallicFactor":0,
				"roughnessFactor":0.7899153232574463
			}
		}
	],
	"meshes":[
		{
			"name":"FLAUNTBRUSH 4.0 BRONZER_FOUNDATION standard",
			"primitives":[
				{
					"attributes":{
						"POSITION":0,
						"NORMAL":1,
						"TEXCOORD_0":2
					},
					"indices":3,
					"material":0
				}
			]
		},
		{
			"name":"BASE_Cylinder.001",
			"primitives":[
				{
					"attributes":{
						"POSITION":4,
						"NORMAL":5,
						"TEXCOORD_0":6
					},
					"indices":7,
					"material":1
				}
			]
		},
		{
			"name":"Icosphere",
			"primitives":[
				{
					"attributes":{
						"POSITION":8,
						"NORMAL":9,
						"TEXCOORD_0":10
					},
					"indices":11
				}
			]
		},
		{
			"name":"Mesh",
			"primitives":[
				{
					"attributes":{
						"POSITION":12,
						"NORMAL":13,
						"TEXCOORD_0":14
					},
					"indices":15,
					"material":2
				}
			]
		}
	],
	"accessors":[
		{
			"bufferView":0,
			"componentType":5126,
			"count":28187,
			"max":[
				0.3149609863758087,
				0.5846459865570068,
				0.3149609863758087
			],
			"min":[
				-0.3149609863758087,
				-0.22834600508213043,
				-0.3149609863758087
			],
			"type":"VEC3"
		},
		{
			"bufferView":1,
			"componentType":5126,
			"count":28187,
			"type":"VEC3"
		},
		{
			"bufferView":2,
			"componentType":5126,
			"count":28187,
			"type":"VEC2"
		},
		{
			"bufferView":3,
			"componentType":5123,
			"count":85788,
			"type":"SCALAR"
		},
		{
			"bufferView":4,
			"componentType":5126,
			"count":440,
			"max":[
				0.0033691367134451866,
				0.002379715209826827,
				0.010048151016235352
			],
			"min":[
				-0.0033691367134451866,
				-0.002379715209826827,
				-0.00911799818277359
			],
			"type":"VEC3"
		},
		{
			"bufferView":5,
			"componentType":5126,
			"count":440,
			"type":"VEC3"
		},
		{
			"bufferView":6,
			"componentType":5126,
			"count":440,
			"type":"VEC2"
		},
		{
			"bufferView":7,
			"componentType":5123,
			"count":1716,
			"type":"SCALAR"
		},
		{
			"bufferView":8,
			"componentType":5126,
			"count":61440,
			"max":[
				0.924250066280365,
				0.9303051233291626,
				0.9248635768890381
			],
			"min":[
				-0.924250066280365,
				-0.9303051233291626,
				-0.9248635768890381
			],
			"type":"VEC3"
		},
		{
			"bufferView":9,
			"componentType":5126,
			"count":61440,
			"type":"VEC3"
		},
		{
			"bufferView":10,
			"componentType":5126,
			"count":61440,
			"type":"VEC2"
		},
		{
			"bufferView":11,
			"componentType":5123,
			"count":92160,
			"type":"SCALAR"
		},
		{
			"bufferView":12,
			"componentType":5126,
			"count":719986,
			"max":[
				0.44700029492378235,
				2.3140294551849365,
				0.15762335062026978
			],
			"min":[
				-0.3889690041542053,
				1.157025694847107,
				-0.17590059340000153
			],
			"type":"VEC3"
		},
		{
			"bufferView":13,
			"componentType":5126,
			"count":719986,
			"type":"VEC3"
		},
		{
			"bufferView":14,
			"componentType":5126,
			"count":719986,
			"type":"VEC2"
		},
		{
			"bufferView":15,
			"componentType":5125,
			"count":1080000,
			"type":"SCALAR"
		}
	],
	"bufferViews":[
		{
			"buffer":0,
			"byteLength":338244,
			"byteOffset":0,
			"target":34962
		},
		{
			"buffer":0,
			"byteLength":338244,
			"byteOffset":338244,
			"target":34962
		},
		{
			"buffer":0,
			"byteLength":225496,
			"byteOffset":676488,
			"target":34962
		},
		{
			"buffer":0,
			"byteLength":171576,
			"byteOffset":901984,
			"target":34963
		},
		{
			"buffer":0,
			"byteLength":5280,
			"byteOffset":1073560,
			"target":34962
		},
		{
			"buffer":0,
			"byteLength":5280,
			"byteOffset":1078840,
			"target":34962
		},
		{
			"buffer":0,
			"byteLength":3520,
			"byteOffset":1084120,
			"target":34962
		},
		{
			"buffer":0,
			"byteLength":3432,
			"byteOffset":1087640,
			"target":34963
		},
		{
			"buffer":0,
			"byteLength":737280,
			"byteOffset":1091072,
			"target":34962
		},
		{
			"buffer":0,
			"byteLength":737280,
			"byteOffset":1828352,
			"target":34962
		},
		{
			"buffer":0,
			"byteLength":491520,
			"byteOffset":2565632,
			"target":34962
		},
		{
			"buffer":0,
			"byteLength":184320,
			"byteOffset":3057152,
			"target":34963
		},
		{
			"buffer":0,
			"byteLength":8639832,
			"byteOffset":3241472,
			"target":34962
		},
		{
			"buffer":0,
			"byteLength":8639832,
			"byteOffset":11881304,
			"target":34962
		},
		{
			"buffer":0,
			"byteLength":5759888,
			"byteOffset":20521136,
			"target":34962
		},
		{
			"buffer":0,
			"byteLength":4320000,
			"byteOffset":26281024,
			"target":34963
		}
	],
	"buffers":[
		{
			"byteLength":30601024,
			"uri":"FD_Foundation-Bronzer.bin"
		}
	]
}
